<svg width="30" height="30" viewBox="0 0 30 30" fill="none" xmlns="http://www.w3.org/2000/svg">
<path d="M0.000863166 15C0.00150106 11.6977 1.09193 8.48778 3.10298 5.86836C5.11404 3.24893 7.93332 1.36638 11.1235 0.512739C14.3136 -0.340905 17.6963 -0.117923 20.7468 1.14709C23.7973 2.41211 26.345 4.64845 27.9949 7.50919C29.6447 10.3699 30.3043 13.6952 29.8714 16.9691C29.4386 20.243 27.9374 23.2825 25.6008 25.6162C23.2642 27.9498 20.2228 29.4472 16.9484 29.876C13.6739 30.3047 10.3495 29.6409 7.49086 27.9875L1.64586 29.9375C1.42992 30.0096 1.19838 30.0214 0.976249 29.9715C0.754113 29.9217 0.549812 29.8121 0.385394 29.6546C0.220976 29.4972 0.102687 29.2978 0.0432909 29.078C-0.0161049 28.8582 -0.0143511 28.6264 0.0483633 28.4075L1.82836 22.18C0.625904 19.9781 -0.00259471 17.5089 0.000863166 15Z" fill="#FCC548"/>
<rect x="10" y="11" width="10" height="2.5" rx="1.25" fill="white"/>
<rect x="10" y="16.5" width="7" height="2.5" rx="1.25" fill="white"/>
</svg>
