<svg width="17" height="19" viewBox="0 0 17 19" fill="none" xmlns="http://www.w3.org/2000/svg">
<path d="M11.8333 4.50008V3.83341C11.8333 2.89999 11.8333 2.43328 11.6517 2.07676C11.4919 1.76316 11.2369 1.50819 10.9233 1.3484C10.5668 1.16675 10.1001 1.16675 9.16667 1.16675H7.83333C6.89991 1.16675 6.4332 1.16675 6.07668 1.3484C5.76308 1.50819 5.50811 1.76316 5.34832 2.07676C5.16667 2.43328 5.16667 2.89999 5.16667 3.83341V4.50008M6.83333 9.08342V13.2501M10.1667 9.08342V13.2501M1 4.50008H16M14.3333 4.50008V13.8334C14.3333 15.2335 14.3333 15.9336 14.0608 16.4684C13.8212 16.9388 13.4387 17.3212 12.9683 17.5609C12.4335 17.8334 11.7335 17.8334 10.3333 17.8334H6.66667C5.26654 17.8334 4.56647 17.8334 4.03169 17.5609C3.56129 17.3212 3.17883 16.9388 2.93915 16.4684C2.66667 15.9336 2.66667 15.2335 2.66667 13.8334V4.50008" stroke="white" stroke-width="2" stroke-linecap="round" stroke-linejoin="round"/>
</svg>
