<svg width="25" height="23" viewBox="0 0 25 23" fill="none" xmlns="http://www.w3.org/2000/svg">
<g clip-path="url(#clip0_734_1948)">
<path d="M10.3906 13.189L12.7344 16.603C12.9297 16.8905 13.0469 17.214 13.0859 17.5374L13.2813 19.514C13.3203 19.8015 13.5938 19.9812 13.8672 19.9452L15.0391 19.8374C15.3516 19.8015 15.625 20.0171 15.625 20.3405C15.625 20.5562 15.4688 20.7358 15.2734 20.8077L12.1875 21.8858C11.875 21.9937 11.4844 21.778 11.4844 21.4905L11.2891 19.4062C11.25 19.0468 11.1328 18.6874 10.8984 18.3999L8.47656 15.0937L7.85156 18.2202C7.77344 18.6155 7.61719 18.9749 7.34375 19.2983L6.60156 20.2327C6.40625 20.4483 6.40625 20.7718 6.60156 21.0233L7.07031 21.5983C7.30469 21.8499 7.26563 22.2452 6.99219 22.4608C6.71875 22.7124 6.28906 22.7124 6.01563 22.4608L3.98438 20.628C3.71094 20.3765 3.71094 19.9452 3.98438 19.6937L4.96094 18.7952C5.42969 18.364 5.70313 17.789 5.78125 17.178L6.91406 7.7624C6.99219 7.1874 7.5 6.72021 8.16406 6.72021H9.25781C9.6875 6.72021 10.0781 6.93584 10.3125 7.25928L11.6797 9.4874C11.9922 9.99053 12.5391 10.278 13.1641 10.278H15.1953C15.625 10.278 15.9766 10.6015 15.9766 10.9968C15.9766 11.3921 15.625 11.7155 15.1953 11.7155H12.5781C12.1875 11.7155 11.8359 11.5718 11.5625 11.3562L10.3906 10.3499H9.53125" stroke="#FCC548" stroke-miterlimit="10" stroke-linecap="round" stroke-linejoin="round"/>
<path d="M10.4884 10.7628L10.3906 10.35L11.5625 11.3563C11.8359 11.6078 12.1875 11.7156 12.5781 11.7156H15.1953C15.3906 11.7156 15.5859 11.6438 15.7422 11.5C15.8984 11.3563 15.9766 11.1766 15.9766 10.9969C15.9766 10.6016 15.625 10.2781 15.1953 10.2781H13.1641C12.5391 10.2781 11.9922 9.95469 11.6797 9.4875L10.3125 7.25938C10.1172 6.97188 9.76562 6.79219 9.41406 6.75625C9.375 6.75625 9.29687 6.75625 9.25781 6.75625H8.16406C8.00781 6.75625 7.85156 6.79219 7.73437 6.82813C7.30469 6.97188 6.99219 7.33125 6.95312 7.7625L5.82031 17.1781C5.74219 17.7891 5.46875 18.3641 5 18.7953L4.02344 19.6938C3.75 19.9453 3.75 20.3766 4.02344 20.6281L6.05469 22.4609C6.21094 22.5688 6.36719 22.6406 6.5625 22.6406C6.71875 22.6406 6.91406 22.5688 7.03125 22.4609C7.30469 22.2453 7.34375 21.85 7.10938 21.5984L6.64063 21.0234C6.44531 20.8078 6.44531 20.4844 6.64063 20.2328L7.38281 19.2984C7.61719 18.975 7.8125 18.6156 7.89063 18.2203L8.51562 15.0938L10.9766 18.4359C11.2109 18.7234 11.3281 19.0828 11.3672 19.4422L11.6016 21.4547C11.6406 21.7781 11.9922 21.9938 12.3047 21.85L15.3906 20.7719C15.5859 20.7 15.7422 20.5203 15.7422 20.3047C15.7422 20.0172 15.4688 19.7656 15.1563 19.8016L13.9844 19.9094C13.6719 19.9453 13.4375 19.7297 13.3984 19.4781L13.2031 17.5016C13.1641 17.1781 13.0469 16.8547 12.8516 16.5672L10.5078 13.1531M10.8203 2.26406V4.025C10.8203 4.85156 10.0781 5.49844 9.21875 5.49844H8.75C7.69531 5.49844 6.83594 4.70781 6.83594 3.7375V2.26406H10.8203ZM10.8594 2.26406H6.75781C6.75781 1.22188 7.69531 0.359375 8.82813 0.359375C9.92187 0.359375 10.8594 1.22188 10.8594 2.26406Z" fill="#FCC548"/>
<path d="M10.4884 10.7628L10.3906 10.35L11.5625 11.3563C11.8359 11.6078 12.1875 11.7156 12.5781 11.7156H15.1953C15.3906 11.7156 15.5859 11.6438 15.7422 11.5C15.8984 11.3563 15.9766 11.1766 15.9766 10.9969C15.9766 10.6016 15.625 10.2781 15.1953 10.2781H13.1641C12.5391 10.2781 11.9922 9.95469 11.6797 9.4875L10.3125 7.25938C10.1172 6.97188 9.76562 6.79219 9.41406 6.75625C9.375 6.75625 9.29687 6.75625 9.25781 6.75625H8.16406C8.00781 6.75625 7.85156 6.79219 7.73437 6.82813C7.30469 6.97188 6.99219 7.33125 6.95312 7.7625L5.82031 17.1781C5.74219 17.7891 5.46875 18.3641 5 18.7953L4.02344 19.6938C3.75 19.9453 3.75 20.3766 4.02344 20.6281L6.05469 22.4609C6.21094 22.5688 6.36719 22.6406 6.5625 22.6406C6.71875 22.6406 6.91406 22.5688 7.03125 22.4609C7.30469 22.2453 7.34375 21.85 7.10938 21.5984L6.64063 21.0234C6.44531 20.8078 6.44531 20.4844 6.64063 20.2328L7.38281 19.2984C7.61719 18.975 7.8125 18.6156 7.89063 18.2203L8.51562 15.0938L10.9766 18.4359C11.2109 18.7234 11.3281 19.0828 11.3672 19.4422L11.6016 21.4547C11.6406 21.7781 11.9922 21.9938 12.3047 21.85L15.3906 20.7719C15.5859 20.7 15.7422 20.5203 15.7422 20.3047C15.7422 20.0172 15.4688 19.7656 15.1563 19.8016L13.9844 19.9094C13.6719 19.9453 13.4375 19.7297 13.3984 19.4781L13.2031 17.5016C13.1641 17.1781 13.0469 16.8547 12.8516 16.5672L10.5078 13.1531M10.8203 2.26406V4.025C10.8203 4.85156 10.0781 5.49844 9.21875 5.49844H8.75C7.69531 5.49844 6.83594 4.70781 6.83594 3.7375V2.26406H10.8203ZM10.8594 2.26406H6.75781C6.75781 1.22188 7.69531 0.359375 8.82813 0.359375C9.92187 0.359375 10.8594 1.22188 10.8594 2.26406Z" stroke="#FCC548" stroke-miterlimit="10" stroke-linecap="round" stroke-linejoin="round"/>
<path d="M9.53125 2.26416H12.9688" stroke="#FCC548" stroke-miterlimit="10" stroke-linecap="round" stroke-linejoin="round"/>
<path d="M8.04688 13.1594H10.4687V10.3203" stroke="#FCC548" stroke-miterlimit="10" stroke-linecap="round" stroke-linejoin="round"/>
</g>
<defs>
<clipPath id="clip0_734_1948">
<rect width="25" height="23" fill="white"/>
</clipPath>
</defs>
</svg>
