<svg width="486" height="416" viewBox="0 0 486 416" fill="none" xmlns="http://www.w3.org/2000/svg">
<path d="M329.033 406H141.968L141.932 404.893L133 135H338L329.033 406ZM144.066 403.705H326.935L335.752 137.295H135.248L144.066 403.705Z" fill="#3F3D56"/>
<path d="M186.819 184.952H172.652V371.346H186.819V184.952Z" fill="#3F3D56"/>
<path d="M242.601 184.952H228.434V371.346H242.601V184.952Z" fill="#3F3D56"/>
<path d="M298.383 184.952H284.216V371.346H298.383V184.952Z" fill="#3F3D56"/>
<path d="M455.959 214L455.046 213.385L224 57.7944L244.042 24L244.955 24.6148L476 180.205L455.959 214ZM226.981 57.0784L455.286 210.824L473.019 180.922L244.715 27.1753L226.981 57.0784Z" fill="#3F3D56"/>
<path d="M399.66 45.8134C392.954 41.3158 385.171 38.9514 377.235 39.0008C369.299 39.0501 361.543 41.5112 354.887 46.092C348.231 50.6727 342.955 57.1808 339.685 64.844C336.415 72.5072 335.288 81.0037 336.438 89.3253L347.438 96.6927C344.674 89.89 344.037 82.3279 345.621 75.1138C347.205 67.8997 350.927 61.4126 356.242 56.6023C361.556 51.7919 368.185 48.9111 375.156 48.3816C382.127 47.8521 389.076 49.7017 394.983 53.6597C400.891 57.6176 405.448 63.476 407.987 70.3769C410.525 77.2779 410.913 84.8589 409.092 92.0099C407.271 99.161 403.337 105.506 397.867 110.117C392.397 114.728 385.678 117.361 378.694 117.633L389.694 125C397.281 122.532 404.041 117.809 409.17 111.391C414.3 104.974 417.585 97.1319 418.635 88.7955C419.685 80.459 418.457 71.9782 415.095 64.3596C411.733 56.7409 406.38 50.3043 399.669 45.8134H399.66Z" fill="#3F3D56"/>
<path d="M464 405H8V407H464V405Z" fill="#3F3D56"/>
<path d="M127.507 195.398L36.6561 127.701C35.8121 127.069 35.2378 126.108 35.059 125.027C34.8802 123.946 35.1115 122.834 35.7023 121.934L107.009 13.7608C107.603 12.8634 108.508 12.2528 109.524 12.0627C110.541 11.8726 111.587 12.1186 112.433 12.7466L203.284 80.4439C204.128 81.0755 204.702 82.0369 204.881 83.1177C205.06 84.1984 204.829 85.3105 204.238 86.2104L132.933 194.381C132.339 195.279 131.434 195.891 130.417 196.081C129.4 196.272 128.354 196.026 127.507 195.398Z" fill="#F9A826"/>
<path d="M147.939 121.942L94.6291 82.2183C94.0126 81.7589 93.4872 81.1749 93.083 80.4996C92.6787 79.8244 92.4036 79.0711 92.2732 78.2828C92.1428 77.4944 92.1597 76.6865 92.323 75.9052C92.4862 75.1238 92.7926 74.3842 93.2247 73.7288C93.6568 73.0733 94.2061 72.5147 94.8412 72.085C95.4763 71.6552 96.1848 71.3626 96.9263 71.224C97.6678 71.0853 98.4276 71.1033 99.1626 71.2769C99.8975 71.4505 100.593 71.7762 101.21 72.2356L154.519 111.959C155.764 112.887 156.612 114.303 156.875 115.895C157.139 117.487 156.796 119.125 155.924 120.449C155.051 121.773 153.72 122.674 152.222 122.954C150.725 123.234 149.184 122.87 147.939 121.942Z" fill="white"/>
<path d="M135.704 140.502L82.3939 100.778C81.7767 100.319 81.2506 99.735 80.8457 99.0596C80.4409 98.3843 80.1652 97.6307 80.0344 96.842C79.9036 96.0533 79.9202 95.2449 80.0834 94.4631C80.2466 93.6813 80.5531 92.9413 80.9855 92.2854C81.4178 91.6296 81.9674 91.0708 82.603 90.6409C83.2385 90.211 83.9475 89.9186 84.6895 89.7802C85.4314 89.6418 86.1917 89.6602 86.9269 89.8344C87.6622 90.0086 88.3579 90.3351 88.9744 90.7953L142.284 130.519C143.528 131.447 144.374 132.863 144.636 134.454C144.899 136.045 144.557 137.682 143.684 139.005C142.812 140.328 141.482 141.229 139.985 141.51C138.489 141.79 136.949 141.428 135.704 140.502Z" fill="white"/>
<path d="M123.337 159.261L70.0275 119.538C69.411 119.078 68.8857 118.494 68.4815 117.819C68.0772 117.144 67.802 116.39 67.6716 115.602C67.5412 114.814 67.5581 114.006 67.7214 113.225C67.8847 112.443 68.191 111.704 68.6231 111.048C69.0552 110.393 69.6045 109.834 70.2396 109.404C70.8747 108.975 71.5833 108.682 72.3247 108.543C73.0662 108.405 73.8261 108.423 74.561 108.596C75.2959 108.77 75.9915 109.096 76.608 109.555L129.918 149.279C131.163 150.206 132.01 151.622 132.274 153.214C132.537 154.806 132.195 156.444 131.322 157.768C130.449 159.092 129.118 159.993 127.621 160.273C126.123 160.553 124.582 160.189 123.337 159.261Z" fill="white"/>
<path d="M147.788 85.2256L127.14 69.8395C126.523 69.3804 125.997 68.7965 125.592 68.1212C125.187 67.4458 124.911 66.6923 124.78 65.9036C124.65 65.1148 124.666 64.3065 124.83 63.5246C124.993 62.7428 125.299 62.0028 125.732 61.3469C126.164 60.6911 126.714 60.1323 127.349 59.7024C127.985 59.2726 128.694 58.9801 129.436 58.8417C130.178 58.7033 130.938 58.7217 131.673 58.8959C132.408 59.0701 133.104 59.3966 133.721 59.8568L154.369 75.243C155.614 76.1707 156.461 77.5864 156.725 79.1785C156.988 80.7706 156.646 82.4087 155.773 83.7325C154.901 85.0563 153.569 85.9572 152.072 86.2373C150.574 86.5173 149.034 86.1534 147.788 85.2256Z" fill="white"/>
</svg>
