<svg width="676" height="424" viewBox="0 0 676 424" fill="none" xmlns="http://www.w3.org/2000/svg">
<path d="M86.7204 139.011C84.6727 139.003 82.6808 138.343 81.033 137.128L67.3272 127.17C66.19 126.34 64.8184 125.892 63.4103 125.892C62.0022 125.892 60.6305 126.34 59.4934 127.17L45.7876 137.128C44.1347 138.329 42.144 138.975 40.1009 138.975C38.0578 138.976 36.0671 138.329 34.4141 137.128C32.7611 135.927 31.5306 134.234 30.8991 132.291C30.2675 130.348 30.2673 128.255 30.8984 126.312L36.1337 110.2C36.5713 108.861 36.5728 107.419 36.1377 106.079C35.7027 104.74 34.8537 103.573 33.713 102.748L20.0073 92.79C18.3544 91.5889 17.1242 89.8955 16.4929 87.9523C15.8616 86.0091 15.8617 83.9159 16.4932 81.9728C17.1246 80.0296 18.3549 78.3363 20.0079 77.1353C21.6608 75.9344 23.6515 75.2876 25.6947 75.2875H42.6355C44.0434 75.2901 45.4158 74.8455 46.5549 74.018C47.6939 73.1905 48.5408 72.0227 48.9735 70.6829L54.2088 54.5712C54.84 52.6278 56.0703 50.934 57.7233 49.7329C59.3764 48.5317 61.3673 47.8848 63.4106 47.8848C65.454 47.8848 67.4449 48.5317 69.098 49.7329C70.751 50.934 71.9813 52.6278 72.6125 54.5712L77.8471 70.6829C78.28 72.0227 79.127 73.1905 80.2661 74.018C81.4053 74.8456 82.7778 75.2901 84.1858 75.2875H101.127C103.17 75.2876 105.161 75.9344 106.813 77.1353C108.466 78.3363 109.697 80.0297 110.328 81.9728C110.96 83.9159 110.96 86.0091 110.328 87.9523C109.697 89.8955 108.467 91.5889 106.814 92.79L93.1083 102.748C91.9674 103.573 91.1182 104.74 90.683 106.079C90.2478 107.418 90.2492 108.861 90.6869 110.2L95.9222 126.312C96.5766 128.253 96.5881 130.353 95.955 132.301C95.3218 134.25 94.0776 135.942 92.407 137.128C90.7594 138.343 88.7678 139.003 86.7204 139.011Z" fill="#FCC548"/>
<path d="M231.503 139.011C229.455 139.003 227.463 138.343 225.815 137.128L212.109 127.17C210.972 126.34 209.601 125.892 208.193 125.892C206.784 125.892 205.413 126.34 204.276 127.17L190.57 137.128C188.917 138.329 186.926 138.975 184.883 138.975C182.84 138.976 180.849 138.329 179.196 137.128C177.543 135.927 176.313 134.234 175.681 132.291C175.05 130.348 175.05 128.255 175.681 126.312L180.916 110.2C181.354 108.861 181.355 107.419 180.92 106.079C180.485 104.74 179.636 103.573 178.495 102.748L164.789 92.79C163.137 91.5889 161.906 89.8955 161.275 87.9523C160.644 86.0091 160.644 83.9159 161.275 81.9728C161.907 80.0296 163.137 78.3363 164.79 77.1353C166.443 75.9344 168.434 75.2876 170.477 75.2875H187.418C188.826 75.2901 190.198 74.8455 191.337 74.018C192.476 73.1905 193.323 72.0227 193.756 70.6829L198.991 54.5712C199.622 52.6278 200.853 50.934 202.506 49.7329C204.159 48.5317 206.149 47.8848 208.193 47.8848C210.236 47.8848 212.227 48.5317 213.88 49.7329C215.533 50.934 216.764 52.6278 217.395 54.5712L222.629 70.6829C223.062 72.0227 223.909 73.1905 225.048 74.018C226.188 74.8456 227.56 75.2901 228.968 75.2875H245.909C247.952 75.2876 249.943 75.9344 251.596 77.1353C253.249 78.3363 254.479 80.0297 255.11 81.9728C255.742 83.9159 255.742 86.0091 255.111 87.9523C254.479 89.8955 253.249 91.5889 251.596 92.79L237.891 102.748C236.75 103.573 235.9 104.74 235.465 106.079C235.03 107.418 235.031 108.861 235.469 110.2L240.704 126.312C241.359 128.253 241.37 130.353 240.737 132.301C240.104 134.25 238.86 135.942 237.189 137.128C235.542 138.343 233.55 139.003 231.503 139.011Z" fill="#FCC548"/>
<path d="M376.285 139.011C374.237 139.003 372.246 138.343 370.598 137.128L356.892 127.17C355.754 126.342 354.383 125.896 352.975 125.896C351.567 125.896 350.196 126.342 349.058 127.17L335.352 137.128C333.699 138.329 331.709 138.976 329.665 138.976C327.622 138.976 325.632 138.329 323.979 137.128C322.326 135.927 321.095 134.234 320.464 132.291C319.832 130.348 319.832 128.255 320.464 126.312L325.698 110.2C326.136 108.861 326.137 107.419 325.702 106.079C325.267 104.74 324.418 103.573 323.277 102.748L309.572 92.79C307.919 91.5889 306.689 89.8955 306.057 87.9523C305.426 86.0091 305.426 83.9159 306.058 81.9728C306.689 80.0297 307.919 78.3363 309.572 77.1353C311.225 75.9344 313.216 75.2876 315.259 75.2875H332.2C333.608 75.2901 334.98 74.8456 336.119 74.018C337.258 73.1905 338.105 72.0227 338.538 70.6829L343.773 54.5712C344.405 52.6278 345.635 50.934 347.288 49.7329C348.941 48.5317 350.932 47.8848 352.975 47.8848C355.019 47.8848 357.009 48.5317 358.662 49.7329C360.316 50.934 361.546 52.6278 362.177 54.5712L367.412 70.6829C367.845 72.0227 368.692 73.1905 369.831 74.018C370.97 74.8455 372.342 75.2901 373.75 75.2875H390.691C392.734 75.2876 394.725 75.9344 396.378 77.1353C398.031 78.3363 399.261 80.0297 399.893 81.9728C400.524 83.9159 400.524 86.0091 399.893 87.9523C399.262 89.8955 398.031 91.5889 396.378 92.79L382.673 102.748C381.532 103.573 380.683 104.74 380.248 106.079C379.813 107.419 379.814 108.861 380.252 110.2L385.487 126.312C386.141 128.253 386.153 130.353 385.52 132.301C384.886 134.25 383.643 135.942 381.972 137.128C380.324 138.343 378.332 139.003 376.285 139.011Z" fill="#FCC548"/>
<path d="M475.4 139.964C473.152 139.955 470.964 139.232 469.154 137.898C467.319 136.595 465.952 134.736 465.257 132.595C464.561 130.455 464.574 128.147 465.292 126.015L470.528 109.903C470.903 108.756 470.904 107.52 470.531 106.372C470.158 105.225 469.431 104.225 468.453 103.517L454.747 93.5591C452.931 92.2398 451.58 90.3797 450.886 88.2452C450.193 86.1107 450.193 83.8113 450.886 81.6768C451.58 79.5423 452.932 77.6822 454.747 76.363C456.563 75.0438 458.75 74.3334 460.994 74.3335H477.935C479.142 74.3357 480.318 73.9547 481.295 73.2453C482.271 72.5359 482.997 71.5348 483.367 70.3864L488.603 54.2751C489.297 52.1406 490.648 50.2805 492.464 48.9613C494.28 47.6421 496.466 46.9316 498.711 46.9316C500.955 46.9316 503.142 47.6421 504.957 48.9613C506.773 50.2805 508.125 52.1406 508.818 54.2751L514.053 70.3864C514.424 71.5348 515.15 72.5358 516.126 73.2452C517.102 73.9546 518.278 74.3357 519.485 74.3335H536.426C538.671 74.3336 540.857 75.0441 542.673 76.3633C544.489 77.6825 545.84 79.5426 546.534 81.677C547.227 83.8114 547.227 86.1106 546.534 88.2451C545.84 90.3796 544.489 92.2398 542.674 93.5591L528.968 103.517C527.99 104.225 527.262 105.224 526.889 106.372C526.516 107.52 526.517 108.756 526.892 109.903L532.128 126.015C532.821 128.149 532.821 130.448 532.127 132.583C531.434 134.717 530.082 136.577 528.266 137.897C526.451 139.216 524.264 139.926 522.02 139.926C519.775 139.926 517.588 139.216 515.773 137.897L502.068 127.939C501.093 127.228 499.917 126.845 498.71 126.845C497.503 126.845 496.327 127.228 495.352 127.939L481.647 137.897C479.837 139.232 477.649 139.956 475.4 139.964ZM498.71 121.927C500.955 121.927 503.142 122.64 504.956 123.962L518.662 133.92C519.638 134.629 520.813 135.011 522.02 135.011C523.226 135.011 524.401 134.63 525.377 133.921C526.353 133.212 527.08 132.212 527.453 131.064C527.825 129.917 527.825 128.681 527.452 127.534L522.217 111.423C521.519 109.288 521.517 106.988 522.211 104.852C522.905 102.717 524.259 100.857 526.079 99.5404L539.784 89.582C540.76 88.873 541.486 87.8732 541.859 86.726C542.231 85.5789 542.231 84.3432 541.859 83.196C541.486 82.0488 540.76 81.0491 539.784 80.3401C538.808 79.631 537.633 79.2492 536.426 79.2491H519.485C517.24 79.2533 515.051 78.5444 513.235 77.2246C511.418 75.9048 510.068 74.0424 509.378 71.9057L504.143 55.7944C503.77 54.6471 503.044 53.6473 502.068 52.9382C501.092 52.2292 499.916 51.8473 498.71 51.8473C497.504 51.8473 496.328 52.2292 495.353 52.9382C494.377 53.6473 493.65 54.6471 493.278 55.7944L488.042 71.9057C487.352 74.0424 486.002 75.9049 484.186 77.2247C482.369 78.5445 480.181 79.2534 477.935 79.2491H460.994C459.788 79.249 458.613 79.6308 457.637 80.3398C456.661 81.0487 455.934 82.0485 455.562 83.1957C455.189 84.3429 455.189 85.5787 455.561 86.7259C455.934 87.8731 456.661 88.8729 457.636 89.582L471.343 99.5404C473.162 100.857 474.515 102.717 475.209 104.852C475.903 106.988 475.901 109.288 475.203 111.423L469.967 127.534C469.595 128.681 469.595 129.917 469.968 131.064C470.34 132.211 471.067 133.211 472.043 133.92C473.019 134.629 474.194 135.011 475.4 135.011C476.606 135.011 477.782 134.629 478.758 133.92L492.464 123.962C494.278 122.64 496.465 121.927 498.71 121.927Z" fill="#3F3D56"/>
<path d="M568.169 251.526C565.92 251.517 563.733 250.793 561.923 249.459C560.088 248.157 558.721 246.297 558.025 244.157C557.33 242.016 557.342 239.709 558.061 237.576L563.297 221.465C563.672 220.318 563.673 219.081 563.3 217.934C562.927 216.786 562.199 215.787 561.222 215.079L547.516 205.121C545.7 203.801 544.348 201.941 543.655 199.807C542.961 197.672 542.961 195.373 543.655 193.238C544.349 191.104 545.7 189.244 547.516 187.925C549.332 186.605 551.518 185.895 553.763 185.895H570.704C571.911 185.897 573.087 185.516 574.063 184.807C575.039 184.097 575.765 183.096 576.136 181.948L581.372 165.837C582.065 163.702 583.417 161.842 585.232 160.523C587.048 159.204 589.235 158.493 591.479 158.493C593.723 158.493 595.91 159.204 597.726 160.523C599.542 161.842 600.893 163.702 601.587 165.837L606.822 181.948C607.192 183.096 607.918 184.097 608.894 184.807C609.871 185.516 611.047 185.897 612.254 185.895H629.195C631.439 185.895 633.626 186.606 635.442 187.925C637.257 189.244 638.609 191.104 639.302 193.239C639.996 195.373 639.996 197.672 639.302 199.807C638.609 201.941 637.258 203.801 635.442 205.121L621.736 215.079C620.759 215.786 620.031 216.786 619.658 217.934C619.285 219.081 619.286 220.318 619.661 221.465L624.896 237.576C625.59 239.711 625.59 242.01 624.896 244.144C624.202 246.279 622.851 248.139 621.035 249.458C619.219 250.777 617.033 251.488 614.788 251.488C612.544 251.488 610.357 250.777 608.541 249.458L594.836 239.501C593.861 238.79 592.686 238.407 591.479 238.407C590.272 238.407 589.096 238.79 588.121 239.501L574.415 249.458C572.605 250.793 570.418 251.517 568.169 251.526ZM591.479 233.489C593.724 233.489 595.911 234.202 597.725 235.524L611.431 245.481C612.406 246.19 613.582 246.573 614.788 246.573C615.994 246.573 617.17 246.191 618.146 245.482C619.122 244.773 619.848 243.773 620.221 242.626C620.594 241.479 620.594 240.243 620.221 239.095L614.986 222.984C614.288 220.85 614.286 218.549 614.98 216.414C615.674 214.278 617.028 212.418 618.847 211.102L632.552 201.143C633.528 200.434 634.254 199.435 634.627 198.288C635 197.14 635 195.905 634.627 194.757C634.254 193.61 633.528 192.611 632.552 191.902C631.576 191.193 630.401 190.811 629.195 190.811H612.254C610.009 190.815 607.82 190.106 606.003 188.786C604.187 187.466 602.836 185.604 602.147 183.467L596.911 167.356C596.538 166.209 595.812 165.209 594.836 164.5C593.86 163.791 592.685 163.409 591.479 163.409C590.272 163.409 589.097 163.791 588.121 164.5C587.145 165.209 586.419 166.209 586.046 167.356L580.811 183.467C580.121 185.604 578.771 187.466 576.954 188.786C575.138 190.106 572.949 190.815 570.704 190.811H553.763C552.557 190.811 551.381 191.192 550.405 191.901C549.429 192.61 548.703 193.61 548.33 194.757C547.957 195.904 547.957 197.14 548.33 198.287C548.703 199.435 549.429 200.434 550.405 201.143L564.111 211.102C565.93 212.418 567.284 214.278 567.978 216.414C568.672 218.549 568.67 220.85 567.972 222.984L562.736 239.095C562.363 240.243 562.363 241.478 562.736 242.626C563.109 243.773 563.835 244.773 564.811 245.482C565.787 246.191 566.962 246.572 568.169 246.572C569.375 246.572 570.55 246.19 571.526 245.481L585.232 235.524C587.047 234.202 589.234 233.489 591.479 233.489Z" fill="#3F3D56"/>
</svg>
