<svg width="24" height="24" viewBox="0 0 24 24" fill="none" xmlns="http://www.w3.org/2000/svg">
<path fill-rule="evenodd" clip-rule="evenodd" d="M13.815 3.57872C13.9613 3.36233 14.0172 3.09728 13.9706 2.84026C13.924 2.58323 13.7787 2.35462 13.5658 2.20334C13.3528 2.05206 13.0891 1.9901 12.8311 2.03073C12.5731 2.07135 12.3412 2.21133 12.185 2.42072L11.185 3.82972C11.1468 3.88304 11.114 3.93998 11.087 3.99972H7.5C7.10218 3.99972 6.72064 4.15776 6.43934 4.43906C6.15804 4.72036 6 5.1019 6 5.49972V6.99972L6.003 7.08372C5.7097 7.18672 5.45565 7.3783 5.27596 7.63196C5.09628 7.88563 4.99985 8.18886 5 8.49972V9.99972C5 10.2641 5.10467 10.5177 5.29112 10.7051C5.47758 10.8925 5.73065 10.9984 5.995 10.9997L6.915 20.1997C6.96458 20.693 7.19564 21.1504 7.56334 21.483C7.93105 21.8156 8.40919 21.9997 8.905 21.9997H15.095C15.5908 21.9997 16.069 21.8156 16.4367 21.483C16.8044 21.1504 17.0354 20.693 17.085 20.1997L18.005 10.9997C18.2693 10.9984 18.5224 10.8925 18.7089 10.7051C18.8953 10.5177 19 10.2641 19 9.99972V8.49972C19.0002 8.18886 18.9037 7.88563 18.724 7.63196C18.5444 7.3783 18.2903 7.18672 17.997 7.08372L18 6.99972V5.49972C18 5.1019 17.842 4.72036 17.5607 4.43906C17.2794 4.15776 16.8978 3.99972 16.5 3.99972H13.517L13.815 3.57872Z" fill="#FCC548"/>
<g clip-path="url(#clip0_666_83)">
<path d="M14.076 12.2429L13.1971 13.0013L13.4648 14.1355C13.4796 14.1971 13.4758 14.2617 13.4539 14.3211C13.432 14.3805 13.393 14.4321 13.3418 14.4693C13.2906 14.5065 13.2295 14.5278 13.1662 14.5303C13.1029 14.5329 13.0403 14.5166 12.9863 14.4836L12 13.8765L11.0131 14.4836C10.9591 14.5164 10.8965 14.5325 10.8334 14.5299C10.7702 14.5272 10.7093 14.506 10.6582 14.4688C10.6071 14.4316 10.5681 14.3801 10.5462 14.3208C10.5243 14.2615 10.5205 14.197 10.5351 14.1355L10.8039 13.0013L9.92499 12.2429C9.87719 12.2016 9.84263 12.1472 9.82561 12.0863C9.80859 12.0255 9.80987 11.961 9.82929 11.9009C9.84871 11.8408 9.8854 11.7877 9.9348 11.7483C9.98419 11.709 10.0441 11.685 10.107 11.6795L11.2594 11.5865L11.7039 10.5107C11.728 10.4521 11.7689 10.4019 11.8215 10.3666C11.8742 10.3313 11.9361 10.3125 11.9995 10.3125C12.0629 10.3125 12.1248 10.3313 12.1775 10.3666C12.2301 10.4019 12.271 10.4521 12.2951 10.5107L12.7394 11.5865L13.8918 11.6795C13.9548 11.6848 14.0149 11.7086 14.0645 11.7479C14.1141 11.7873 14.1509 11.8403 14.1705 11.9005C14.19 11.9607 14.1913 12.0253 14.1743 12.0863C14.1573 12.1472 14.1227 12.2018 14.0748 12.2431L14.076 12.2429Z" fill="white"/>
</g>
<defs>
<clipPath id="clip0_666_83">
<rect width="5" height="5" fill="white" transform="translate(9.5 10)"/>
</clipPath>
</defs>
</svg>
