<svg width="15" height="15" viewBox="0 0 15 15" fill="none" xmlns="http://www.w3.org/2000/svg">
<path d="M10.8871 2.99684L8.76779 0L0.975125 6.27877L0.543125 6.27406V6.28079H0.203125V14.3495H14.2031V6.28079H13.5618L12.2858 2.51608L10.8871 2.99684ZM12.1531 6.28079H5.46779L10.4471 4.56888L11.4618 4.24143L12.1531 6.28079ZM9.56979 3.45003L4.42979 5.21707L8.50046 1.93715L9.56979 3.45003ZM1.53646 11.7735V8.85536C1.81772 8.75484 2.0732 8.59227 2.28426 8.37952C2.49531 8.16677 2.65664 7.90919 2.75646 7.62556H11.6498C11.7496 7.90929 11.9109 8.16698 12.1219 8.37985C12.333 8.59272 12.5885 8.7554 12.8698 8.85604V11.7742C12.5885 11.8748 12.333 12.0375 12.1219 12.2504C11.9109 12.4633 11.7496 12.721 11.6498 13.0047H2.75779C2.65791 12.7207 2.49643 12.4628 2.28514 12.2498C2.07384 12.0368 1.81806 11.8741 1.53646 11.7735Z" fill="#FCC548"/>
</svg>
