<svg width="24" height="24" viewBox="0 0 24 24" fill="none" xmlns="http://www.w3.org/2000/svg">
<path fill-rule="evenodd" clip-rule="evenodd" d="M13.815 3.57872C13.9613 3.36233 14.0172 3.09728 13.9706 2.84026C13.924 2.58323 13.7787 2.35462 13.5658 2.20334C13.3528 2.05206 13.0891 1.9901 12.8311 2.03073C12.5731 2.07135 12.3412 2.21133 12.185 2.42072L11.185 3.82972C11.1468 3.88304 11.114 3.93998 11.087 3.99972H7.5C7.10218 3.99972 6.72064 4.15776 6.43934 4.43906C6.15804 4.72036 6 5.1019 6 5.49972V6.99972L6.003 7.08372C5.7097 7.18672 5.45565 7.3783 5.27596 7.63196C5.09628 7.88563 4.99985 8.18886 5 8.49972V9.99972C5 10.2641 5.10467 10.5177 5.29112 10.7051C5.47758 10.8925 5.73065 10.9984 5.995 10.9997L6.915 20.1997C6.96458 20.693 7.19564 21.1504 7.56334 21.483C7.93105 21.8156 8.40919 21.9997 8.905 21.9997H15.095C15.5908 21.9997 16.069 21.8156 16.4367 21.483C16.8044 21.1504 17.0354 20.693 17.085 20.1997L18.005 10.9997C18.2693 10.9984 18.5224 10.8925 18.7089 10.7051C18.8953 10.5177 19 10.2641 19 9.99972V8.49972C19.0002 8.18886 18.9037 7.88563 18.724 7.63196C18.5444 7.3783 18.2903 7.18672 17.997 7.08372L18 6.99972V5.49972C18 5.1019 17.842 4.72036 17.5607 4.43906C17.2794 4.15776 16.8978 3.99972 16.5 3.99972H13.517L13.815 3.57872Z" fill="#FCC548"/>
</svg>
