<svg width="30" height="31" viewBox="0 0 30 31" fill="none" xmlns="http://www.w3.org/2000/svg">
<path d="M10.0009 13C10.0009 12.6685 10.1326 12.3506 10.367 12.1162C10.6014 11.8817 10.9193 11.75 11.2509 11.75H18.7509C19.0824 11.75 19.4003 11.8817 19.6347 12.1162C19.8692 12.3506 20.0009 12.6685 20.0009 13C20.0009 13.3316 19.8692 13.6495 19.6347 13.8839C19.4003 14.1183 19.0824 14.25 18.7509 14.25H11.2509C10.9193 14.25 10.6014 14.1183 10.367 13.8839C10.1326 13.6495 10.0009 13.3316 10.0009 13ZM11.2509 16.75C10.9193 16.75 10.6014 16.8817 10.367 17.1162C10.1326 17.3506 10.0009 17.6685 10.0009 18C10.0009 18.3316 10.1326 18.6495 10.367 18.8839C10.6014 19.1183 10.9193 19.25 11.2509 19.25H16.2509C16.5824 19.25 16.9003 19.1183 17.1347 18.8839C17.3692 18.6495 17.5009 18.3316 17.5009 18C17.5009 17.6685 17.3692 17.3506 17.1347 17.1162C16.9003 16.8817 16.5824 16.75 16.2509 16.75H11.2509ZM0.000863165 15.5C0.00150106 12.1977 1.09193 8.98778 3.10298 6.36836C5.11404 3.74893 7.93332 1.86638 11.1235 1.01274C14.3136 0.159095 17.6963 0.382077 20.7468 1.64709C23.7973 2.91211 26.345 5.14845 27.9949 8.00919C29.6447 10.8699 30.3043 14.1952 29.8714 17.4691C29.4386 20.743 27.9374 23.7825 25.6008 26.1162C23.2642 28.4498 20.2228 29.9472 16.9484 30.376C13.6739 30.8047 10.3495 30.1409 7.49086 28.4875L1.64586 30.4375C1.42992 30.5096 1.19838 30.5214 0.976249 30.4715C0.754113 30.4217 0.549812 30.3121 0.385394 30.1546C0.220976 29.9972 0.102687 29.7978 0.0432909 29.578C-0.0161049 29.3582 -0.0143511 29.1264 0.0483633 28.9075L1.82836 22.68C0.625904 20.4781 -0.00259472 18.0089 0.000863165 15.5ZM15.0009 3.00004C12.7938 2.9999 10.6261 3.58412 8.718 4.6933C6.80992 5.80249 5.22954 7.3971 4.13749 9.31504C3.04544 11.233 2.48067 13.4059 2.50059 15.6128C2.5205 17.8198 3.12439 19.9821 4.25086 21.88C4.33753 22.0266 4.39333 22.1894 4.41482 22.3584C4.43632 22.5273 4.42306 22.6989 4.37586 22.8625L3.10336 27.3125L7.24836 25.9325C7.4244 25.8738 7.61131 25.855 7.79552 25.8775C7.97973 25.9 8.15663 25.9632 8.31336 26.0625C9.95154 27.0993 11.8084 27.7408 13.7372 27.9363C15.666 28.1318 17.6138 27.8761 19.4267 27.1892C21.2396 26.5023 22.8679 25.4032 24.1829 23.9786C25.4979 22.5541 26.4635 20.8433 27.0034 18.9813C27.5433 17.1193 27.6427 15.1573 27.2938 13.2503C26.9449 11.3433 26.1572 9.54356 24.993 7.9934C23.8287 6.44324 22.3199 5.18512 20.5857 4.3185C18.8515 3.45187 16.9395 3.00049 15.0009 3.00004Z" fill="#D9D9D9"/>
</svg>
