<svg width="40" height="40" viewBox="0 0 40 40" fill="none" xmlns="http://www.w3.org/2000/svg">
<path d="M6.66732 6.66675C5.78326 6.66675 4.93542 7.01794 4.31029 7.64306C3.68517 8.26818 3.33398 9.11603 3.33398 10.0001V16.6667C4.21804 16.6667 5.06589 17.0179 5.69101 17.6431C6.31613 18.2682 6.66732 19.116 6.66732 20.0001C6.66732 20.8841 6.31613 21.732 5.69101 22.3571C5.06589 22.9822 4.21804 23.3334 3.33398 23.3334V30.0001C3.33398 30.8841 3.68517 31.732 4.31029 32.3571C4.93542 32.9822 5.78326 33.3334 6.66732 33.3334H33.334C34.218 33.3334 35.0659 32.9822 35.691 32.3571C36.3161 31.732 36.6673 30.8841 36.6673 30.0001V23.3334C35.7833 23.3334 34.9354 22.9822 34.3103 22.3571C33.6852 21.732 33.334 20.8841 33.334 20.0001C33.334 19.116 33.6852 18.2682 34.3103 17.6431C34.9354 17.0179 35.7833 16.6667 36.6673 16.6667V10.0001C36.6673 9.11603 36.3161 8.26818 35.691 7.64306C35.0659 7.01794 34.218 6.66675 33.334 6.66675H6.66732ZM25.834 11.6667L28.334 14.1667L14.1673 28.3334L11.6673 25.8334L25.834 11.6667ZM14.684 11.7334C16.3173 11.7334 17.634 13.0501 17.634 14.6834C17.634 15.4658 17.3232 16.2161 16.7699 16.7694C16.2167 17.3226 15.4664 17.6334 14.684 17.6334C13.0507 17.6334 11.734 16.3167 11.734 14.6834C11.734 13.901 12.0448 13.1507 12.598 12.5974C13.1513 12.0442 13.9016 11.7334 14.684 11.7334ZM25.3173 22.3667C26.9506 22.3667 28.2673 23.6834 28.2673 25.3167C28.2673 26.0991 27.9565 26.8495 27.4033 27.4027C26.8501 27.9559 26.0997 28.2667 25.3173 28.2667C23.684 28.2667 22.3673 26.9501 22.3673 25.3167C22.3673 24.5344 22.6781 23.784 23.2314 23.2308C23.7846 22.6776 24.5349 22.3667 25.3173 22.3667Z" fill="#FCC548"/>
</svg>
