<svg width="18" height="17" viewBox="0 0 18 17" fill="none" xmlns="http://www.w3.org/2000/svg">
<path d="M14.0156 3.1875H12.7406L11.6781 1.32812C11.5188 1.16875 11.3594 1.0625 11.2 1.0625H6.25937C6.04687 1.0625 5.8875 1.16875 5.78125 1.32812L4.66562 3.1875H3.39062C3.07187 3.1875 2.85938 3.4 2.85938 3.71875V5.84375C2.85938 6.1625 3.07187 6.375 3.39062 6.375H3.975L5.14375 15.4594C5.19688 15.725 5.40938 15.9375 5.675 15.9375H11.7313C11.9969 15.9375 12.2094 15.725 12.2625 15.4594L13.4312 6.375H14.0156C14.3344 6.375 14.5469 6.1625 14.5469 5.84375V3.71875C14.5469 3.4 14.3344 3.1875 14.0156 3.1875ZM6.525 2.125H10.8813L11.5187 3.1875H5.8875L6.525 2.125ZM11.2531 14.875H6.1L5.0375 6.375H12.3156L11.2531 14.875ZM13.4844 5.3125H12.9531H4.45312H3.92188V4.25H4.98438H12.4219H13.4844V5.3125Z" fill="#FCC548"/>
<path d="M8.70312 12.75C9.87188 12.75 10.8281 11.7938 10.8281 10.625C10.8281 9.45625 9.87188 8.5 8.70312 8.5C7.53437 8.5 6.57812 9.45625 6.57812 10.625C6.57812 11.7938 7.53437 12.75 8.70312 12.75ZM8.70312 9.5625C9.2875 9.5625 9.76562 10.0406 9.76562 10.625C9.76562 11.2094 9.2875 11.6875 8.70312 11.6875C8.11875 11.6875 7.64062 11.2094 7.64062 10.625C7.64062 10.0406 8.11875 9.5625 8.70312 9.5625Z" fill="#FCC548"/>
</svg>
