<svg width="27" height="37" viewBox="0 0 27 37" fill="none" xmlns="http://www.w3.org/2000/svg">
<path fill-rule="evenodd" clip-rule="evenodd" d="M16.7515 3.7848C17.0137 3.39711 17.1138 2.92222 17.0303 2.46171C16.9469 2.00121 16.6865 1.59163 16.305 1.32058C15.9235 1.04953 15.451 0.938524 14.9887 1.01131C14.5264 1.08409 14.1109 1.33488 13.8311 1.71005L12.0395 4.23451C11.9712 4.33007 11.9123 4.43208 11.8639 4.53909H5.43717C4.72441 4.53909 4.04083 4.82224 3.53682 5.32624C3.03282 5.83024 2.74967 6.51382 2.74967 7.22659V9.91409L2.75505 10.0646C2.22955 10.2491 1.82169 10.4178 1.49976 10.8723C1.17783 11.3268 0.957737 12.0446 0.958008 12.6016V15.2891C0.958002 15.7627 1.14554 16.2171 1.4796 16.5528C1.81367 16.8886 2.26709 17.0784 2.74072 17.0808L4.38905 33.5641C4.47788 34.448 4.89186 35.2673 5.55066 35.8632C6.20947 36.4591 7.06614 36.7891 7.95447 36.7891H19.0449C19.9332 36.7891 20.7899 36.4591 21.4487 35.8632C22.1075 35.2673 22.5215 34.448 22.6103 33.5641L24.2586 17.0808C24.7323 17.0784 25.1857 16.8886 25.5197 16.5528C25.8538 16.2171 26.0413 15.7627 26.0413 15.2891V12.6016C26.0416 12.0446 25.8688 11.5014 25.5469 11.0469C25.225 10.5924 24.7698 10.2491 24.2443 10.0646L24.2497 9.91409V7.22659C24.2497 6.51382 23.9665 5.83024 23.4625 5.32624C22.9585 4.82224 22.2749 4.53909 21.5622 4.53909H16.2176L16.7515 3.7848Z" fill="#FCC548"/>
<path d="M2.18182 9.5H24.8182C25.747 9.5 26.5 10.253 26.5 11.1818V14.8182C26.5 15.747 25.747 16.5 24.8182 16.5H2.18182C1.25297 16.5 0.5 15.747 0.5 14.8182V11.1818C0.5 10.253 1.25298 9.5 2.18182 9.5Z" stroke="white"/>
</svg>
