<svg width="26" height="37" viewBox="0 0 26 37" fill="none" xmlns="http://www.w3.org/2000/svg">
<path d="M13.3316 1.70989C13.5953 1.33811 13.9909 1.08083 14.4376 0.99043C14.8844 0.900028 15.3488 0.983306 15.7363 1.22331C16.1238 1.46331 16.4053 1.84198 16.5234 2.28223C16.6415 2.72248 16.5874 3.19119 16.3721 3.59293L16.252 3.78464L15.7181 4.53893H21.0627C21.7307 4.53897 22.3749 4.78783 22.8694 5.237C23.364 5.68617 23.6735 6.30344 23.7376 6.96843L23.7502 7.22643V9.91393L23.7448 10.0644C24.7159 10.4049 25.4325 11.2899 25.5311 12.3524L25.5418 12.6032V15.2889C25.5415 15.7264 25.3812 16.1486 25.0911 16.476C24.801 16.8034 24.4012 17.0133 23.967 17.0663L23.7591 17.0788L22.1108 33.5621C22.0266 34.399 21.6508 35.1795 21.0491 35.7672C20.4473 36.3548 19.6581 36.7121 18.8195 36.7764L18.5454 36.7871H7.45495C6.61308 36.7875 5.79796 36.4914 5.15256 35.9509C4.50716 35.4103 4.0727 34.6598 3.92537 33.8309L3.88954 33.5621L2.2412 17.0788C1.80364 17.0765 1.38204 16.9142 1.05594 16.6224C0.72984 16.3306 0.521791 15.9296 0.471038 15.495L0.458496 15.2889V12.6014C0.458226 12.0445 0.631 11.5012 0.952931 11.0467C1.27486 10.5922 1.73004 10.249 2.25554 10.0644L2.25195 9.98918L2.25016 7.22643C2.2502 6.55835 2.49906 5.91423 2.94823 5.41968C3.3974 4.92513 4.01467 4.61561 4.67966 4.55148L4.93766 4.53893H11.3644L11.4432 4.38306L11.54 4.23435L13.3316 1.70989ZM3.50024 17.3723L4.97558 31.6585C5.09231 32.7889 5.44115 33.883 6.00024 34.8723C6.95138 35.4574 8.04618 35.7672 9.16287 35.7672H13.0002H16.2536C17.3967 35.7672 18.5185 35.458 19.5002 34.8723C20.4488 34.2399 21.0602 33.2123 21.1635 32.0769L22.5002 17.3723H3.50024ZM22.8425 11.4864C22.6158 11.4108 22.3784 11.3723 22.1395 11.3723H13.0002H8.25024H3.86101C3.62206 11.3723 3.38468 11.4108 3.15799 11.4864C2.43691 11.7268 1.88861 12.3189 1.70426 13.0563L1.6567 13.2465C1.55398 13.6574 1.55398 14.0872 1.6567 14.4981L1.71602 14.7354C1.89457 15.4496 2.40446 16.035 3.08738 16.3098C3.36009 16.4196 3.65132 16.476 3.94529 16.476H22.0552C22.3492 16.476 22.6404 16.4196 22.9131 16.3098C23.596 16.035 24.1059 15.4496 24.2845 14.7354L24.3438 14.4981C24.4465 14.0872 24.4465 13.6574 24.3438 13.2465L24.2962 13.0563C24.1119 12.3189 23.5636 11.7268 22.8425 11.4864ZM22.5002 6.87231C22.5002 6.32003 22.0525 5.87231 21.5002 5.87231H13.0002H4.50024C3.94796 5.87231 3.50024 6.32003 3.50024 6.87231V9.87231L13.0002 9.89312L22.5002 9.91393V6.87231Z" fill="#D9D9D9"/>
<path d="M13.3316 1.70989C13.5953 1.33811 13.9909 1.08083 14.4376 0.99043C14.8844 0.900028 15.3488 0.983306 15.7363 1.22331C16.1238 1.46331 16.4053 1.84198 16.5234 2.28223C16.6415 2.72248 16.5874 3.19119 16.3721 3.59293L16.252 3.78464L15.7181 4.53893H21.0627C21.7307 4.53897 22.3749 4.78783 22.8694 5.237C23.364 5.68617 23.6735 6.30344 23.7376 6.96843L23.7502 7.22643V9.91393L23.7448 10.0644C24.7159 10.4049 25.4325 11.2899 25.5311 12.3524L25.5418 12.6032V15.2889C25.5415 15.7264 25.3812 16.1486 25.0911 16.476C24.801 16.8034 24.4012 17.0133 23.967 17.0663L23.7591 17.0788L22.1108 33.5621C22.0266 34.399 21.6508 35.1795 21.0491 35.7672C20.4473 36.3548 19.6581 36.7121 18.8195 36.7764L18.5454 36.7871H7.45495C6.61308 36.7875 5.79796 36.4914 5.15256 35.9509C4.50716 35.4103 4.0727 34.6598 3.92537 33.8309L3.88954 33.5621L2.2412 17.0788C1.80364 17.0765 1.38204 16.9142 1.05594 16.6224C0.72984 16.3306 0.521791 15.9296 0.471038 15.495L0.458496 15.2889V12.6014C0.458226 12.0445 0.631 11.5012 0.952931 11.0467C1.27486 10.5922 1.73004 10.249 2.25554 10.0644L2.25195 9.98918L2.25016 7.22643C2.2502 6.55835 2.49906 5.91423 2.94823 5.41968C3.3974 4.92513 4.01467 4.61561 4.67966 4.55148L4.93766 4.53893H11.3644L11.4432 4.38306L11.54 4.23435L13.3316 1.70989ZM3.50024 17.3723L4.97558 31.6585C5.09231 32.7889 5.44115 33.883 6.00024 34.8723C6.95138 35.4574 8.04618 35.7672 9.16287 35.7672H13.0002H16.2536C17.3967 35.7672 18.5185 35.458 19.5002 34.8723C20.4488 34.2399 21.0602 33.2123 21.1635 32.0769L22.5002 17.3723H3.50024ZM22.8425 11.4864C22.6158 11.4108 22.3784 11.3723 22.1395 11.3723H13.0002H8.25024H3.86101C3.62206 11.3723 3.38468 11.4108 3.15799 11.4864C2.43691 11.7268 1.88861 12.3189 1.70426 13.0563L1.6567 13.2465C1.55398 13.6574 1.55398 14.0872 1.6567 14.4981L1.71602 14.7354C1.89457 15.4496 2.40446 16.035 3.08738 16.3098C3.36009 16.4196 3.65132 16.476 3.94529 16.476H22.0552C22.3492 16.476 22.6404 16.4196 22.9131 16.3098C23.596 16.035 24.1059 15.4496 24.2845 14.7354L24.3438 14.4981C24.4465 14.0872 24.4465 13.6574 24.3438 13.2465L24.2962 13.0563C24.1119 12.3189 23.5636 11.7268 22.8425 11.4864ZM22.5002 6.87231C22.5002 6.32003 22.0525 5.87231 21.5002 5.87231H13.0002H4.50024C3.94796 5.87231 3.50024 6.32003 3.50024 6.87231V9.87231L13.0002 9.89312L22.5002 9.91393V6.87231Z" stroke="#D9D9D9"/>
</svg>
