<svg width="11" height="11" viewBox="0 0 11 11" fill="none" xmlns="http://www.w3.org/2000/svg">
<path d="M2.39648 3.37598H1.87565C1.5994 3.37598 1.3344 3.48523 1.13907 3.67854C0.943735 3.88026 0.833984 4.14081 0.833984 4.41817V9.15011C0.833984 9.42747 0.943735 9.69643 1.13907 9.88975C1.3344 10.0915 1.5994 10.2007 1.87565 10.2007H6.56315C6.8394 10.2007 7.1044 10.0915 7.29973 9.88975C7.49507 9.69643 7.60482 9.42747 7.60482 9.15011V8.6206" stroke="white" stroke-width="1.25" stroke-linecap="round" stroke-linejoin="round"/>
<path d="M7.08333 2.32544L8.64583 3.89715M9.36717 3.15752C9.57233 2.9474 9.68758 2.66999 9.68758 2.37582C9.68758 2.08165 9.57233 1.80435 9.36717 1.59422C9.16208 1.3841 8.88383 1.27484 8.59375 1.27484C8.30367 1.26643 8.02542 1.3841 7.82033 1.59422L3.4375 5.99837V7.57848H5L9.36717 3.15752Z" stroke="white" stroke-width="1.25" stroke-linecap="round" stroke-linejoin="round"/>
</svg>
