<svg width="22" height="22" viewBox="0 0 22 22" fill="none" xmlns="http://www.w3.org/2000/svg">
<path d="M22.0012 10.8374C22.0012 9.96568 21.9282 9.32958 21.7703 8.66992H11.502V12.6043H17.5292C17.4078 13.5821 16.7516 15.0545 15.2933 16.044L15.2729 16.1757L18.5195 18.6138L18.7445 18.6356C20.8102 16.7861 22.0012 14.065 22.0012 10.8374Z" fill="#4285F4"/>
<path d="M11.5006 21.2034C14.4534 21.2034 16.9324 20.261 18.7431 18.6355L15.2919 16.0439C14.3684 16.6682 13.1289 17.104 11.5006 17.104C8.60846 17.104 6.15381 15.2547 5.27879 12.6985L5.15053 12.709L1.77462 15.2417L1.73047 15.3607C3.52892 18.8239 7.2231 21.2034 11.5006 21.2034Z" fill="#34A853"/>
<path d="M5.27933 12.6984C5.04844 12.0388 4.91482 11.3319 4.91482 10.6016C4.91482 9.87125 5.04844 9.16449 5.26718 8.50484L5.26106 8.36435L1.84284 5.79102L1.731 5.84258C0.989773 7.27973 0.564453 8.89358 0.564453 10.6016C0.564453 12.3097 0.989773 13.9235 1.731 15.3606L5.27933 12.6984Z" fill="#FBBC05"/>
<path d="M11.5006 4.09932C13.5542 4.09932 14.9395 4.95924 15.7294 5.67785L18.816 2.75646C16.9203 1.0484 14.4535 0 11.5006 0C7.2231 0 3.52893 2.37949 1.73047 5.8427L5.26665 8.50496C6.15381 5.94876 8.60847 4.09932 11.5006 4.09932Z" fill="#EB4335"/>
</svg>
