<svg width="14" height="13" viewBox="0 0 14 13" fill="none" xmlns="http://www.w3.org/2000/svg">
<path d="M1.30469 8.33333V9.65333C1.30469 10.4747 1.30469 10.8853 1.44976 11.1998C1.57776 11.4755 1.78149 11.6996 2.03322 11.8404C2.31695 12 2.69029 12 3.43589 12H13.3047M1.30469 8.33333V1M1.30469 8.33333L3.87322 5.97963L3.87642 5.97729C4.34042 5.55137 4.57295 5.33781 4.82575 5.25099C5.12442 5.14891 5.44549 5.16415 5.73455 5.29557C5.97882 5.40821 6.19215 5.64288 6.62202 6.11573L6.62629 6.12042C7.06255 6.60032 7.28016 6.83969 7.52869 6.95115C7.82309 7.08257 8.15056 7.09546 8.45243 6.98517C8.70736 6.8913 8.94095 6.66603 9.40708 6.21782L13.3047 2.46667" stroke="#FCC548" stroke-width="1.25" stroke-linecap="round" stroke-linejoin="round"/>
</svg>
