<svg width="32" height="36" viewBox="0 0 32 36" fill="none" xmlns="http://www.w3.org/2000/svg">
<path d="M30.181 32.2493V14.4742C30.181 14.1496 30.117 13.8294 29.9939 13.539C29.8708 13.2486 29.6921 12.996 29.472 12.8013L17.0638 1.82253C16.7569 1.55105 16.3837 1.4043 16.0002 1.4043C15.6166 1.4043 15.2435 1.55105 14.9366 1.82253L2.52838 12.8013C2.30823 12.996 2.12954 13.2486 2.00647 13.539C1.88341 13.8294 1.81934 14.1496 1.81934 14.4742V32.2493C1.81934 32.8039 2.00609 33.3358 2.33852 33.728C2.67095 34.1202 3.12182 34.3405 3.59194 34.3405H10.6824C11.1525 34.3405 11.6034 34.1202 11.9358 33.728C12.2682 33.3358 12.455 32.8039 12.455 32.2493V25.9757C12.455 25.4211 12.6417 24.8892 12.9742 24.497C13.3066 24.1049 13.7575 23.8845 14.2276 23.8845H17.7728C18.2429 23.8845 18.6938 24.1049 19.0262 24.497C19.3586 24.8892 19.5454 25.4211 19.5454 25.9757V32.2493C19.5454 32.8039 19.7322 33.3358 20.0646 33.728C20.397 34.1202 20.8479 34.3405 21.318 34.3405H28.4084C28.8786 34.3405 29.3294 34.1202 29.6619 33.728C29.9943 33.3358 30.181 32.8039 30.181 32.2493Z" fill="#FCC548" stroke="#FCC548" stroke-width="2" stroke-linecap="round" stroke-linejoin="round"/>
</svg>
