<svg width="33" height="37" viewBox="0 0 33 37" fill="none" xmlns="http://www.w3.org/2000/svg">
<path d="M30.986 33.2493V15.4742C30.986 15.1496 30.9212 14.8294 30.7969 14.539C30.6725 14.2486 30.4919 13.996 30.2693 13.8013L17.7277 2.82253C17.4175 2.55105 17.0403 2.4043 16.6527 2.4043C16.265 2.4043 15.8878 2.55105 15.5777 2.82253L3.036 13.8013C2.81348 13.996 2.63288 14.2486 2.50849 14.539C2.3841 14.8294 2.31934 15.1496 2.31934 15.4742V33.2493C2.31934 33.8039 2.5081 34.3358 2.8441 34.728C3.18011 35.1202 3.63582 35.3405 4.111 35.3405H11.2777C11.7528 35.3405 12.2086 35.1202 12.5446 34.728C12.8806 34.3358 13.0693 33.8039 13.0693 33.2493V26.9757C13.0693 26.4211 13.2581 25.8892 13.5941 25.497C13.9301 25.1049 14.3858 24.8845 14.861 24.8845H18.4443C18.9195 24.8845 19.3752 25.1049 19.7112 25.497C20.0472 25.8892 20.236 26.4211 20.236 26.9757V33.2493C20.236 33.8039 20.4248 34.3358 20.7608 34.728C21.0968 35.1202 21.5525 35.3405 22.0277 35.3405H29.1943C29.6695 35.3405 30.1252 35.1202 30.4612 34.728C30.7972 34.3358 30.986 33.8039 30.986 33.2493Z" stroke="#D9D9D9" stroke-width="3" stroke-linecap="round" stroke-linejoin="round"/>
</svg>
