<svg width="36" height="36" viewBox="0 0 36 36" fill="none" xmlns="http://www.w3.org/2000/svg">
<path d="M31.5077 23.409C31.1748 22.5698 30.7363 21.7764 30.2027 21.048C29.5219 20.2366 29.0621 19.2632 28.8677 18.222C28.8677 13.878 28.8677 12.405 26.4977 9.56404C25.7127 8.63632 24.7418 7.8836 23.6477 7.35454L22.5527 6.82954C22.492 6.79092 22.4407 6.73915 22.4027 6.67804C22.3918 6.62864 22.3918 6.57745 22.4027 6.52804C22.2438 5.49678 21.7037 4.56269 20.8892 3.91054C20.0758 3.25936 19.0471 2.93808 18.0077 3.01054C17.0006 2.95798 16.0104 3.28501 15.2327 3.92704C14.4382 4.5552 13.904 5.45485 13.7327 6.45304C13.7183 6.52416 13.6875 6.59093 13.6427 6.64804C13.6005 6.70099 13.5498 6.74661 13.4927 6.78304L12.3227 7.35304C11.2178 7.87879 10.2402 8.63831 9.4577 9.57904C7.1027 12.405 7.1027 13.878 7.1027 18.222C6.92827 19.2 6.50463 20.1165 5.8727 20.883C5.30438 21.6064 4.8399 22.4056 4.4927 23.2575C4.29088 23.8436 4.22119 24.4671 4.28861 25.0832C4.35604 25.6994 4.55891 26.293 4.8827 26.8215C5.22477 27.2579 5.66951 27.6028 6.17726 27.8255C6.68501 28.0483 7.23998 28.1419 7.7927 28.098H12.0227C12.0872 28.5015 12.1982 28.8945 12.3527 29.271C12.6527 30.0135 13.0952 30.687 13.6577 31.2555C14.2202 31.8255 14.8937 32.2695 15.6377 32.5635C16.3277 32.8455 17.0672 32.994 17.8127 32.9985H17.9327C18.7292 33.0125 19.5202 32.8645 20.2577 32.5635C21.0032 32.2725 21.6782 31.8285 22.2377 31.2555C22.8069 30.6927 23.2515 30.0166 23.5427 29.271C23.6927 28.8915 23.8097 28.5 23.8877 28.098H28.2977C28.8167 28.0965 29.3297 27.978 29.7977 27.753C30.3242 27.486 30.7772 27.093 31.1177 26.61C31.4567 26.1255 31.6637 25.56 31.7177 24.972C31.7745 24.4417 31.7025 23.9055 31.5077 23.409ZM21.7577 18.4035H19.1177V21.018C19.1177 21.3167 18.9993 21.6031 18.7884 21.8146C18.5775 22.0261 18.2913 22.1452 17.9927 22.146C17.8447 22.1462 17.698 22.1172 17.5612 22.0605C17.4245 22.0039 17.3002 21.9207 17.1957 21.8159C17.0912 21.7111 17.0084 21.5866 16.9521 21.4497C16.8958 21.3128 16.8671 21.1661 16.8677 21.018V18.405H14.2577C14.1097 18.405 13.9632 18.3758 13.8265 18.3191C13.6898 18.2624 13.5656 18.1793 13.4611 18.0745C13.3566 17.9697 13.2738 17.8453 13.2175 17.7085C13.1611 17.5716 13.1323 17.425 13.1327 17.277C13.1327 16.9784 13.2511 16.6919 13.462 16.4805C13.6729 16.269 13.9591 16.1498 14.2577 16.149H16.8677V13.503C16.8677 13.2044 16.9861 12.9179 17.197 12.7065C17.4079 12.495 17.6941 12.3758 17.9927 12.375C18.1407 12.3748 18.2874 12.4039 18.4241 12.4606C18.5609 12.5172 18.6852 12.6003 18.7897 12.7052C18.8942 12.81 18.977 12.9344 19.0333 13.0714C19.0896 13.2083 19.1183 13.355 19.1177 13.503V16.1475H21.7577C21.9057 16.1473 22.0524 16.1764 22.1891 16.2331C22.3259 16.2897 22.4502 16.3728 22.5547 16.4777C22.6592 16.5825 22.742 16.7069 22.7983 16.8439C22.8546 16.9808 22.8833 17.1275 22.8827 17.2755C22.8827 17.5742 22.7643 17.8606 22.5534 18.0721C22.3425 18.2836 22.0563 18.4027 21.7577 18.4035Z" fill="#FCC548"/>
</svg>
