<svg width="16" height="17" viewBox="0 0 16 17" fill="none" xmlns="http://www.w3.org/2000/svg">
<path d="M15.5104 0.671577C15.464 0.555987 15.3748 0.46274 15.2614 0.411235C15.148 0.35973 15.0191 0.353933 14.9015 0.395049C14.7839 0.436165 14.6867 0.52103 14.6301 0.631988C14.5735 0.742945 14.5619 0.871453 14.5976 0.990777C15.3408 3.12678 13.8656 4.72198 12.7408 5.57638L12.2864 4.92518C12.1336 4.70678 11.792 4.52518 11.5264 4.52198L8.97604 4.53318C8.66448 4.54259 8.36126 4.63601 8.09844 4.80358L0.583238 10.0732C0.408434 10.1962 0.289494 10.3835 0.252459 10.594C0.215424 10.8045 0.263312 11.0211 0.385638 11.1964L3.80084 16.0828C4.05684 16.4468 4.46564 16.4028 4.83044 16.1484L12.3456 10.878C12.5616 10.7252 12.8112 10.3956 12.8992 10.1436L13.6976 7.62758C13.7856 7.37638 13.732 6.99318 13.5792 6.77478L13.3024 6.37798C14.8128 5.22038 16.3808 3.17478 15.5104 0.671577ZM12.0136 8.15798C11.8752 8.25489 11.719 8.32357 11.554 8.3601C11.389 8.39663 11.2184 8.40029 11.052 8.37087C10.8856 8.34145 10.7266 8.27953 10.5841 8.18864C10.4416 8.09775 10.3185 7.97968 10.2216 7.84118C10.0256 7.5609 9.94874 7.21429 10.008 6.87742C10.0672 6.54054 10.2577 6.24094 10.5376 6.04438C10.7571 5.89063 11.0191 5.80929 11.287 5.81173C11.555 5.81417 11.8154 5.90026 12.032 6.05798C11.8144 6.18918 11.6648 6.26598 11.6368 6.27798C11.5377 6.32526 11.4575 6.40483 11.4095 6.50364C11.3614 6.60245 11.3484 6.71464 11.3725 6.82183C11.3966 6.92903 11.4563 7.02486 11.542 7.09364C11.6277 7.16241 11.7342 7.20005 11.844 7.20038C11.9128 7.20038 11.9832 7.18438 12.0496 7.15318C12.2048 7.07958 12.3712 6.99238 12.5448 6.88918C12.5848 7.12923 12.5561 7.37567 12.4621 7.60014C12.3681 7.82461 12.2127 8.01798 12.0136 8.15798Z" fill="#FCC548"/>
</svg>
