<svg width="90" height="90" viewBox="0 0 90 90" fill="none" xmlns="http://www.w3.org/2000/svg">
<path d="M45 90C69.8528 90 90 69.8528 90 45C90 20.1472 69.8528 0 45 0C20.1472 0 0 20.1472 0 45C0 69.8528 20.1472 90 45 90Z" fill="#FCC548"/>
<path d="M19.471 57.6666V55.9961H18.7798V55.6504H20.5511V55.9961H19.8455V57.6666H19.471ZM21.5473 57.6666V55.6504H23.0911V55.9903H21.916V57.3267H23.1026V57.6666H21.5473ZM21.7374 56.8025V56.4684H22.9442V56.8025H21.7374ZM25.752 57.6666V55.6504H26.1264V57.6666H25.752ZM24.2341 57.6666V55.6504H24.6085V57.6666H24.2341ZM24.3896 56.8428L24.3925 56.4915H25.9334V56.8428H24.3896ZM30.4427 57.6666L30.221 57.4275L30.1058 57.321L29.5873 56.8169C29.5297 56.7614 29.4721 56.7046 29.4145 56.647C29.3588 56.5894 29.3079 56.5318 29.2619 56.4742C29.2158 56.4145 29.1783 56.3561 29.1495 56.2985C29.1227 56.2409 29.1092 56.1833 29.1092 56.1257C29.1092 56.0393 29.1361 55.9566 29.1898 55.878C29.2455 55.7994 29.3233 55.7348 29.4231 55.685C29.5249 55.6352 29.6449 55.6101 29.7832 55.6101C29.9003 55.6101 30.0069 55.6274 30.1029 55.662C30.1989 55.6965 30.2805 55.7434 30.3477 55.8031C30.4168 55.8627 30.4696 55.9306 30.5061 56.0076L30.2411 56.2121C30.1855 56.1121 30.1182 56.0413 30.0395 55.9989C29.9608 55.9549 29.8792 55.9327 29.7947 55.9327C29.7409 55.9327 29.6929 55.9393 29.6507 55.9529C29.6084 55.9664 29.5748 55.9874 29.5499 56.0162C29.5249 56.045 29.5124 56.0804 29.5124 56.1228C29.5124 56.1573 29.5239 56.1956 29.547 56.238C29.57 56.2783 29.5988 56.3195 29.6334 56.3618C29.668 56.4042 29.7045 56.4445 29.7428 56.4828C29.7832 56.5211 29.8187 56.5548 29.8494 56.5836L30.3823 57.0905L30.4888 57.2057L30.9208 57.6666H30.4427ZM29.6276 57.704C29.4471 57.704 29.2926 57.6744 29.1639 57.6147C29.0372 57.5551 28.9402 57.4765 28.873 57.3786C28.8077 57.2806 28.7751 57.1749 28.7751 57.0617C28.7751 56.9255 28.8183 56.8017 28.9047 56.6902C28.993 56.577 29.1265 56.4865 29.3051 56.4194L29.5326 56.6527C29.402 56.6873 29.3079 56.7354 29.2503 56.7968C29.1947 56.8581 29.1668 56.9313 29.1668 57.0156C29.1668 57.0811 29.1841 57.1403 29.2186 57.1942C29.2532 57.2481 29.307 57.2913 29.3799 57.3238C29.4529 57.3547 29.547 57.3699 29.6622 57.3699C29.739 57.3699 29.8168 57.3576 29.8955 57.3325C29.9742 57.3057 30.0462 57.2654 30.1115 57.2115C30.1787 57.156 30.2334 57.0856 30.2757 57.0012C30.3198 56.9169 30.3439 56.8169 30.3477 56.7017H30.7048C30.6991 56.8321 30.6732 56.9515 30.6271 57.0589C30.5829 57.1646 30.5253 57.2576 30.4543 57.3382C30.3851 57.4189 30.3054 57.4859 30.2152 57.5398C30.125 57.5937 30.0299 57.6349 29.9301 57.6637C29.8321 57.6904 29.7313 57.704 29.6276 57.704ZM33.4766 57.6666V55.6504H33.8308L34.669 56.814L34.4818 56.8112L35.3228 55.6504H35.6713V57.6666H35.2998V56.8918C35.2998 56.7268 35.3036 56.575 35.3113 56.4367C35.3189 56.2964 35.3343 56.1553 35.3574 56.0133L35.3977 56.1458L34.6632 57.1193H34.4731L33.7502 56.1458L33.7905 56.0133C33.8136 56.1516 33.8289 56.2898 33.8366 56.4281C33.8443 56.5663 33.8481 56.721 33.8481 56.8918V57.6666H33.4766ZM36.8664 57.6666V57.3238H37.31V55.9932H36.8664V55.6504H38.128V55.9932H37.6844V57.3238H38.128V57.6666H36.8664ZM39.3227 57.6666V55.6504H39.677L41.071 57.2259L41.0249 57.2374C41.0153 57.1778 41.0076 57.1173 41.0019 57.056C40.9961 56.9947 40.9903 56.9313 40.9846 56.8659C40.9808 56.8005 40.9769 56.7342 40.9731 56.6671C40.9712 56.6001 40.9692 56.5326 40.9673 56.4655C40.9673 56.3964 40.9673 56.3265 40.9673 56.2553V55.6504H41.3389V57.6666H40.9788L39.579 56.1141L39.6366 56.094C39.6424 56.1611 39.6482 56.2236 39.6539 56.2812C39.6597 56.3367 39.6645 56.3915 39.6683 56.4454C39.6741 56.4993 39.6789 56.5511 39.6827 56.6009C39.6866 56.649 39.6895 56.6968 39.6914 56.7449C39.6933 56.7931 39.6943 56.84 39.6943 56.886V57.6666H39.3227ZM43.457 57.6839C43.2727 57.6839 43.1095 57.6456 42.9674 57.5687C42.8253 57.4901 42.7139 57.3823 42.6333 57.2461C42.5545 57.1099 42.5152 56.956 42.5152 56.7852V55.6476H42.8925V56.768C42.8925 56.8774 42.9175 56.9753 42.9674 57.0617C43.0173 57.1461 43.0855 57.2136 43.1719 57.2633C43.2583 57.3115 43.3534 57.3354 43.457 57.3354C43.5684 57.3354 43.6682 57.3115 43.7566 57.2633C43.8449 57.2136 43.914 57.1461 43.964 57.0617C44.0139 56.9753 44.0388 56.8774 44.0388 56.768V55.6476H44.4017V56.7852C44.4017 56.956 44.3614 57.1099 44.2808 57.2461C44.202 57.3823 44.0916 57.4901 43.9496 57.5687C43.8094 57.6456 43.6452 57.6839 43.457 57.6839ZM45.5767 57.6666V55.6504H45.931L46.7692 56.814L46.582 56.8112L47.423 55.6504H47.7716V57.6666H47.4V56.8918C47.4 56.7268 47.4037 56.575 47.4115 56.4367C47.4189 56.2964 47.4346 56.1553 47.4576 56.0133L47.4979 56.1458L46.7635 57.1193H46.5734L45.8503 56.1458L45.8906 56.0133C45.9137 56.1516 45.929 56.2898 45.9367 56.4281C45.9444 56.5663 45.9483 56.721 45.9483 56.8918V57.6666H45.5767ZM48.7216 57.6666L49.6202 55.6504H49.9975L50.8933 57.6666H50.4987L49.9457 56.4223C49.9305 56.3915 49.914 56.3553 49.8967 56.3129C49.8815 56.2705 49.8651 56.2273 49.8478 56.1833C49.8305 56.1372 49.8144 56.0932 49.7988 56.0508C49.7836 56.0068 49.77 55.9673 49.7585 55.9327L49.8449 55.9298C49.8317 55.9701 49.8173 56.0125 49.8017 56.0565C49.7865 56.0989 49.77 56.1421 49.7527 56.1861C49.7354 56.2302 49.7182 56.2726 49.7009 56.3129C49.6836 56.3532 49.6676 56.3927 49.6519 56.431L49.1018 57.6666H48.7216ZM49.1248 57.223L49.2573 56.8976H50.3345L50.4267 57.223H49.1248ZM51.8446 57.6666V55.6504H52.1988L53.5929 57.2259L53.5468 57.2374C53.5373 57.1778 53.5295 57.1173 53.5237 57.056C53.518 56.9947 53.5122 56.9313 53.5065 56.8659C53.5028 56.8005 53.4991 56.7342 53.4949 56.6671C53.4933 56.6001 53.4912 56.5326 53.4892 56.4655C53.4892 56.3964 53.4892 56.3265 53.4892 56.2553V55.6504H53.8607V57.6666H53.5007L52.1009 56.1141L52.1585 56.094C52.1643 56.1611 52.17 56.2236 52.1758 56.2812C52.1816 56.3367 52.1865 56.3915 52.1902 56.4454C52.196 56.4993 52.2009 56.5511 52.2046 56.6009C52.2087 56.649 52.2116 56.6968 52.2132 56.7449C52.2153 56.7931 52.2161 56.84 52.2161 56.886V57.6666H51.8446ZM57.4026 57.6954C57.266 57.6954 57.1405 57.681 57.0253 57.6522C56.9117 57.6213 56.808 57.5781 56.7142 57.5226C56.622 57.467 56.5385 57.3967 56.4636 57.3123L56.6854 57.0185C56.8022 57.1473 56.9195 57.2382 57.0368 57.2921C57.1557 57.344 57.2832 57.3699 57.4198 57.3699C57.4984 57.3699 57.5725 57.3605 57.6416 57.3411C57.7124 57.3201 57.77 57.2901 57.8144 57.2518C57.8605 57.2115 57.8835 57.1625 57.8835 57.1049C57.8835 57.0667 57.872 57.0338 57.849 57.007C57.8276 56.9782 57.798 56.9543 57.7597 56.935C57.7231 56.914 57.6807 56.8967 57.633 56.8832C57.5848 56.8696 57.535 56.8581 57.4832 56.8486C57.4314 56.8391 57.3795 56.8305 57.3277 56.8227C57.2067 56.8033 57.0989 56.7786 57.0051 56.7478C56.9109 56.7153 56.831 56.6737 56.766 56.6239C56.7006 56.5742 56.6508 56.5153 56.6163 56.4482C56.5833 56.3812 56.5673 56.3034 56.5673 56.215C56.5673 56.1228 56.5883 56.0401 56.6307 55.9673C56.6726 55.8924 56.7323 55.829 56.8092 55.7772C56.8858 55.7253 56.9742 55.6858 57.0742 55.6591C57.1758 55.6303 57.2861 55.6159 57.4054 55.6159C57.5322 55.6159 57.6461 55.6294 57.7482 55.6562C57.8519 55.6829 57.9428 55.7224 58.0218 55.7743C58.1004 55.8241 58.1666 55.8846 58.2205 55.9557L57.9872 56.2121C57.9391 56.1545 57.8835 56.1055 57.8202 56.0652C57.7585 56.0249 57.6922 55.9952 57.6215 55.9759C57.5503 55.9549 57.4754 55.9442 57.3968 55.9442C57.312 55.9442 57.2372 55.9537 57.1721 55.973C57.1067 55.9924 57.0549 56.0199 57.0166 56.0565C56.9779 56.0932 56.959 56.1372 56.959 56.189C56.959 56.2314 56.9713 56.2689 56.9964 56.3014C57.0211 56.3322 57.0557 56.359 57.1001 56.382C57.1462 56.403 57.1997 56.4215 57.2614 56.4367C57.3227 56.4503 57.3898 56.4626 57.463 56.4742C57.5741 56.4915 57.6791 56.5137 57.777 56.5404C57.8749 56.5672 57.9613 56.603 58.0362 56.647C58.1111 56.6894 58.1687 56.7429 58.209 56.8083C58.251 56.8716 58.2724 56.9515 58.2724 57.0473C58.2724 57.1798 58.2358 57.295 58.1629 57.393C58.0897 57.4888 57.9881 57.5637 57.8576 57.6176C57.7288 57.6695 57.577 57.6954 57.4026 57.6954ZM59.3286 57.6666V55.6504H60.8724V55.9903H59.6973V57.3267H60.8839V57.6666H59.3286ZM59.5187 56.8025V56.4684H60.7255V56.8025H59.5187ZM63.0091 57.6954C62.8515 57.6954 62.7038 57.6715 62.5655 57.6234C62.4273 57.5752 62.3063 57.5073 62.2026 57.4189C62.0989 57.3288 62.0175 57.2193 61.9578 57.0905C61.9002 56.9617 61.8714 56.8169 61.8714 56.6556C61.8714 56.5096 61.901 56.3742 61.9607 56.2495C62.0204 56.1228 62.1026 56.0133 62.2084 55.9212C62.3141 55.8269 62.438 55.7541 62.5799 55.7023C62.7239 55.6504 62.8787 55.6245 63.0436 55.6245C63.1724 55.6245 63.2934 55.6397 63.4066 55.6706C63.5218 55.7015 63.6226 55.7426 63.709 55.7944C63.7974 55.8463 63.8682 55.9031 63.9221 55.9644L63.6859 56.2207C63.6263 56.1709 63.5629 56.1277 63.4958 56.0911C63.4288 56.0545 63.3568 56.0257 63.2798 56.0047C63.2049 55.9837 63.1251 55.973 63.0408 55.973C62.9313 55.973 62.8285 55.9903 62.7326 56.0249C62.6384 56.0594 62.5561 56.1076 62.4849 56.1689C62.4158 56.2302 62.361 56.3022 62.3207 56.3849C62.2825 56.4676 62.2631 56.5577 62.2631 56.6556C62.2631 56.7671 62.2833 56.8659 62.3236 56.9523C62.366 57.0366 62.4223 57.1086 62.4935 57.1683C62.5664 57.228 62.6499 57.2728 62.7441 57.3037C62.8383 57.3325 62.9363 57.3469 63.0379 57.3469C63.1321 57.3469 63.2193 57.3362 63.3 57.3152C63.3827 57.2942 63.4535 57.2642 63.5131 57.2259C63.5744 57.1876 63.6226 57.1432 63.6571 57.0934C63.6917 57.0416 63.7082 56.9848 63.7061 56.9235L63.7032 56.8716L63.7579 56.9436H63.0235V56.6153H64.0805C64.0842 56.6404 64.0871 56.6651 64.0892 56.6902C64.0912 56.7132 64.092 56.7342 64.092 56.7535C64.0941 56.7729 64.0949 56.7881 64.0949 56.7996C64.0949 56.9416 64.0682 57.0683 64.0143 57.1798C63.9624 57.2913 63.8875 57.3851 63.7896 57.4621C63.6917 57.537 63.5765 57.5946 63.444 57.6349C63.3136 57.6752 63.1683 57.6954 63.0091 57.6954ZM64.8565 57.6666L65.7552 55.6504H66.1325L67.0282 57.6666H66.6336L66.0806 56.4223C66.0654 56.3915 66.0489 56.3553 66.0317 56.3129C66.0164 56.2705 66 56.2273 65.9827 56.1833C65.9654 56.1372 65.9494 56.0932 65.9337 56.0508C65.9185 56.0068 65.9049 55.9673 65.8934 55.9327L65.9798 55.9298C65.9666 55.9701 65.9522 56.0125 65.9366 56.0565C65.9214 56.0989 65.9049 56.1421 65.8876 56.1861C65.8704 56.2302 65.8531 56.2726 65.8358 56.3129C65.8185 56.3532 65.8025 56.3927 65.7868 56.431L65.2367 57.6666H64.8565ZM65.2598 57.223L65.3923 56.8976H66.4694L66.5616 57.223H65.2598ZM67.9795 57.6666V55.6504H69.0221C69.1509 55.6504 69.2661 55.6784 69.3678 55.734C69.4698 55.7879 69.5505 55.8627 69.6097 55.9586C69.6714 56.0545 69.7019 56.1639 69.7019 56.287C69.7019 56.4059 69.6702 56.5153 69.6068 56.6153C69.5435 56.7132 69.4591 56.791 69.3534 56.8486C69.248 56.9062 69.1308 56.935 69.002 56.935H68.3453V57.6666H67.9795ZM69.3534 57.6666L68.7428 56.7564L69.1345 56.6844L69.8027 57.6695L69.3534 57.6666ZM68.3453 56.6095H68.9847C69.0464 56.6095 69.102 56.596 69.1517 56.5692C69.2019 56.5404 69.241 56.5022 69.2698 56.454C69.3007 56.4059 69.3159 56.3524 69.3159 56.2927C69.3159 56.2331 69.2999 56.1812 69.267 56.1372C69.2344 56.0911 69.1904 56.0545 69.1345 56.0277C69.081 56.001 69.0193 55.9874 68.9501 55.9874H68.3453V56.6095Z" fill="black"/>
<path d="M48.2031 37.4893H51.0833V51.0672H48.2031V37.4893Z" fill="black"/>
<path d="M53.758 37.4893H56.4324L53.6321 45.7426L51.1279 45.3634L53.758 37.4893Z" fill="black"/>
<path d="M51.9062 44.8907L54.1693 43.8669L56.8438 51.0673H53.9635L51.9062 44.8907Z" fill="black"/>
<path d="M53.9637 43.2498H51.0835V45.7185H53.9637V43.2498Z" fill="black"/>
<g clip-path="url(#clip0_753_2382)">
<path d="M42.577 33.9314C42.5695 33.899 42.562 33.8666 42.5595 33.8277C42.5711 33.7986 42.5801 33.7763 42.584 33.7532C42.6575 33.3092 42.7155 32.8625 42.8078 32.4219C42.8994 31.985 43.0483 31.5613 43.2221 31.1459C43.3793 30.7702 43.5637 30.4074 43.7797 30.0596C43.8728 29.9096 43.9721 29.7621 44.0802 29.6216C44.2583 29.3905 44.4369 29.1587 44.6312 28.9403C44.997 28.5292 45.4041 28.1574 45.8571 27.8368C46.1941 27.5983 46.5361 27.3654 46.8869 27.1467C47.2046 26.9485 47.5341 26.7673 47.8641 26.5886C48.2991 26.3531 48.7419 26.1315 49.1772 25.8965C49.6295 25.6522 50.0812 25.4064 50.525 25.148C51.0125 24.8643 51.4656 24.534 51.8641 24.138C51.945 24.0575 52.0187 23.9702 52.0957 23.8861C52.0694 23.8807 52.055 23.8871 52.0439 23.8969C51.9672 23.9648 51.8925 24.0348 51.8147 24.1014C51.193 24.6331 50.478 25.0249 49.7498 25.3955C49.3684 25.5895 48.9815 25.7732 48.5972 25.9618C48.208 26.1528 47.8133 26.3342 47.4311 26.5378C46.9774 26.7795 46.5301 27.0333 46.088 27.2948C45.5373 27.6205 45.0253 27.999 44.5709 28.4435C44.3148 28.6941 44.0723 28.9599 43.8448 29.2349C43.6833 29.4302 43.5498 29.6485 43.4173 29.8641C43.3085 30.0412 43.2171 30.2283 43.1228 30.4132C43.0682 30.5205 43.0232 30.6323 42.9643 30.7632C42.8934 30.5427 42.8182 30.3466 42.7685 30.1443C42.717 29.935 42.687 29.7203 42.6534 29.507C42.6025 29.1844 42.6128 28.8605 42.6537 28.5355C42.7169 28.0325 42.8878 27.5626 43.1433 27.1203C43.3267 26.8028 43.557 26.515 43.8147 26.2497C44.2015 25.8515 44.6435 25.5172 45.1212 25.2273C45.6497 24.9067 46.2041 24.6363 46.7869 24.4228C47.0882 24.3124 47.3889 24.1996 47.6937 24.0994C47.9627 24.011 48.2367 23.9371 48.5093 23.8594C48.7552 23.7893 49.0026 23.7239 49.2487 23.6543C49.5459 23.5703 49.8435 23.4873 50.139 23.3979C50.3746 23.3266 50.61 23.2531 50.8409 23.1683C51.1155 23.0675 51.391 22.9659 51.6556 22.8429C52.3254 22.5316 52.9357 22.133 53.4658 21.6245C53.5105 21.5815 53.546 21.5295 53.5858 21.4817C53.6019 21.478 53.618 21.4743 53.6354 21.4702C53.6514 21.5394 53.6673 21.6085 53.678 21.6853C53.6685 21.6997 53.6609 21.7064 53.6606 21.7132C53.6464 21.9943 53.6474 22.2766 53.6157 22.5561C53.5707 22.9536 53.4734 23.3441 53.3342 23.7223C53.1975 24.0938 53.0584 24.4663 52.8886 24.8248C52.6946 25.2345 52.4708 25.6319 52.2494 26.0293C52.1451 26.2165 52.0214 26.3946 51.8972 26.5707C51.6539 26.916 51.4142 27.2645 51.1537 27.5977C50.9221 27.8939 50.6717 28.1776 50.4164 28.4556C50.0008 28.9081 49.534 29.3088 49.0375 29.6773C48.6805 29.9423 48.3058 30.1801 47.9155 30.3967C47.3845 30.6914 46.8264 30.9229 46.2425 31.0905C45.8584 31.2007 45.465 31.2783 45.0661 31.3124C44.6322 31.3494 44.1986 31.3482 43.7672 31.2931C43.7474 31.2906 43.7174 31.3011 43.7046 31.3157C43.6644 31.3613 43.6231 31.4083 43.5949 31.461C43.4708 31.6925 43.3341 31.9199 43.2339 32.1607C43.0973 32.4892 42.9875 32.8279 42.8706 33.1636C42.8294 33.2817 42.801 33.4039 42.7687 33.5177C42.9485 33.3475 43.1186 33.1698 43.3065 33.0121C43.7457 32.6436 44.2338 32.3473 44.7559 32.1005C45.0973 31.9391 45.4474 31.8 45.8104 31.6999C46.0752 31.627 46.3491 31.5777 46.622 31.5451C46.934 31.5078 47.2505 31.4769 47.563 31.4854C48.2879 31.505 49.0115 31.5524 49.7359 31.5836C50.016 31.5957 50.297 31.603 50.5774 31.597C50.7996 31.5923 51.0231 31.5743 51.2434 31.5432C51.423 31.5179 51.5987 31.4645 51.7762 31.4235C51.7329 31.4327 51.6893 31.4422 51.6461 31.4528C51.3997 31.5133 51.1481 31.5361 50.8974 31.5269C50.4364 31.51 49.9752 31.4887 49.5161 31.4502C48.7302 31.3844 47.9474 31.2816 47.1551 31.2936C46.8494 31.2982 46.5436 31.3257 46.238 31.3462C46.1204 31.3541 46.0033 31.3713 45.8872 31.3842C45.9934 31.3516 46.1005 31.319 46.2074 31.2857C46.4107 31.2225 46.6171 31.1674 46.8162 31.0932C47.077 30.996 47.3378 30.8952 47.5883 30.7751C48.0584 30.5498 48.5048 30.284 48.9289 29.9831C48.9653 29.9573 49.0221 29.9402 49.0657 29.9452C49.2422 29.9655 49.4214 29.9819 49.592 30.0257C49.9998 30.1303 50.4052 30.2442 50.8081 30.3644C51.2374 30.4924 51.6564 30.6526 52.1035 30.7234C52.4265 30.7746 52.7517 30.7914 53.075 30.7189C53.2593 30.6776 53.4389 30.6148 53.6219 30.5612C53.6201 30.5671 53.6193 30.5808 53.6125 30.5909C53.4744 30.7968 53.3459 31.0097 53.1947 31.2065C52.8673 31.6326 52.4513 31.9722 51.9972 32.2628C51.6687 32.4731 51.3223 32.6591 50.974 32.8374C50.7371 32.9586 50.4843 33.0509 50.236 33.1497C50.0908 33.2075 49.9402 33.252 49.7928 33.3047C49.7781 33.31 49.7692 33.3311 49.7576 33.3448C49.2832 33.4544 48.8087 33.5639 48.326 33.6683C48.3051 33.6598 48.2922 33.6524 48.2801 33.6537C48.1387 33.6686 47.9974 33.6847 47.8561 33.7007C47.4561 33.7459 47.0559 33.7409 46.6578 33.7063C46.1541 33.6625 45.666 33.554 45.2016 33.3608C44.8859 33.2295 44.5883 33.0694 44.324 32.8577C44.2362 32.7873 44.1552 32.7717 44.0544 32.8329C43.9884 32.873 43.9133 32.8987 43.8455 32.9363C43.5552 33.0973 43.2786 33.2777 43.0337 33.4998C42.8785 33.6406 42.729 33.7874 42.577 33.9314ZM52.0944 23.8592C52.1066 23.8545 52.1188 23.8499 52.131 23.8452C52.1293 23.841 52.1276 23.8368 52.1258 23.8326C52.1157 23.8372 52.1056 23.8419 52.0944 23.8592ZM52.1384 23.806C52.1439 23.8055 52.1494 23.805 52.1548 23.8046C52.1502 23.8019 52.1455 23.7992 52.1384 23.806Z" fill="#5A953B"/>
</g>
<path d="M17.3438 37.4893H9.9375V39.958H17.3438V37.4893Z" fill="black"/>
<path d="M12.2827 39.958V51.0674H15.1629V39.958H12.2827Z" fill="black"/>
<path d="M23.3101 37.4893H20.2241V51.0674H23.3101V37.4893Z" fill="black"/>
<path d="M26.6017 37.4893H23.3101V39.958H26.6017V37.4893Z" fill="black"/>
<path d="M26.6017 42.8384H23.3101V45.3071H26.6017V42.8384Z" fill="black"/>
<path d="M26.6017 48.5986H23.3101V51.0674H26.6017V48.5986Z" fill="black"/>
<path d="M41.2085 37.4893H44.2944V51.0672H41.2085V37.4893Z" fill="black"/>
<path d="M32.5677 37.4893H29.6875V51.0674H32.5677V37.4893Z" fill="black"/>
<path d="M35.0366 37.4893C36.4682 37.4893 37.6288 38.6498 37.6288 40.0814V48.475C37.6288 49.9069 36.4682 51.0672 35.0366 51.0672V37.4893Z" fill="black"/>
<path d="M32.5679 37.4893H34.7486C35.8166 37.4893 36.6825 38.355 36.6825 39.4231H32.5679V37.4893Z" fill="black"/>
<path d="M32.5679 49.01H37.0939C37.0939 50.1465 36.1728 51.0673 35.0366 51.0673H32.5679V49.01Z" fill="black"/>
<path d="M59.5181 39.1353H62.3983V51.0674H59.5181V39.1353Z" fill="black"/>
<path d="M64.6616 39.1353C64.6616 39.1353 67.3361 39.1353 67.5418 39.1353C67.7476 39.1353 67.5418 51.0674 67.5418 51.0674H64.6616V39.1353Z" fill="black"/>
<path d="M62.3984 44.2783H64.7849V46.5412H62.3984V44.2783Z" fill="black"/>
<path d="M59.9888 38.3817C60.3393 37.8213 60.9372 37.4633 61.5968 37.4193L62.0897 37.3865L63.5574 37.3865L65.2011 37.4437C66.0212 37.4722 66.7737 37.9065 67.2086 38.6025L67.5415 39.1352H65.4842H63.5574H59.5181L59.9888 38.3817Z" fill="black"/>
<path d="M71.2446 39.5466C71.2446 39.5466 73.9253 39.5466 74.1248 39.5466C74.3244 39.5466 74.1248 51.0673 74.1248 51.0673H71.2446V39.5466Z" fill="black"/>
<path d="M76.1821 37.4893H71.2446V39.5465H76.1821V37.4893Z" fill="black"/>
<path d="M76.1821 43.6611H71.2446V45.7184H76.1821V43.6611Z" fill="black"/>
<path d="M76.1821 37.4893C77.6593 37.4893 78.8566 38.6866 78.8566 40.1637V43.0439C78.8566 44.521 77.6593 45.7184 76.1821 45.7184V37.4893Z" fill="black"/>
<defs>
<clipPath id="clip0_753_2382">
<rect width="13.5781" height="10.6979" fill="white" transform="translate(40.3853 24.5127) rotate(-13)"/>
</clipPath>
</defs>
</svg>
